<?xml version="1.0" encoding="UTF-8" standalone="no"?>
<!DOCTYPE svg PUBLIC "-//W3C//DTD SVG 1.1//EN" "http://www.w3.org/Graphics/SVG/1.1/DTD/svg11.dtd">
<svg xmlns="http://www.w3.org/2000/svg" xmlns:xlink="http://www.w3.org/1999/xlink" version="1.1" width="834.46566pt" height="537.9938pt" viewBox="0 0 834.46566 537.9938">
<g enable-background="new">
<g>
<path transform="matrix(1,0,0,-1,0,537.9938)" d="M 62.996877 65.740879 L 530.5469 65.740879 L 530.5469 517.4209 L 62.996877 517.4209 Z " fill="#ffffff"/>
<clipPath id="cp0">
<path transform="matrix(1,0,0,-1,0,537.9938)" d="M 62.996877 65.740879 L 530.5469 65.740879 L 530.5469 517.4209 L 62.996877 517.4209 Z "/>
</clipPath>
<g clip-path="url(#cp0)">
<path transform="matrix(1,0,0,-1,0,537.9938)" stroke-width=".8" stroke-linecap="square" stroke-linejoin="round" fill="none" stroke="#bebebe" d="M 84.249149 65.740879 L 84.249149 517.4209 "/>
</g>
<path transform="matrix(1,0,0,-1,0,537.9938)" d="M 84.249149 65.740879 L 84.249149 62.240877 "/>
<path transform="matrix(1,0,0,-1,0,537.9938)" stroke-width=".8" stroke-linecap="butt" stroke-linejoin="round" fill="none" stroke="#000000" d="M 84.249149 65.740879 L 84.249149 62.240877 "/>
<text xml:space="preserve" transform="matrix(1 0 -0 1 0 537.9938)" font-size="20" font-family="DejaVuSans"><tspan y="-43.53775" x="68.35071 81.07071 87.43071">0.0</tspan></text>
<clipPath id="cp1">
<path transform="matrix(1,0,0,-1,0,537.9938)" d="M 62.996877 65.740879 L 530.5469 65.740879 L 530.5469 517.4209 L 62.996877 517.4209 Z "/>
</clipPath>
<g clip-path="url(#cp1)">
<path transform="matrix(1,0,0,-1,0,537.9938)" stroke-width=".8" stroke-linecap="square" stroke-linejoin="round" fill="none" stroke="#bebebe" d="M 169.25824 65.740879 L 169.25824 517.4209 "/>
</g>
<path transform="matrix(1,0,0,-1,0,537.9938)" d="M 169.25824 65.740879 L 169.25824 62.240877 "/>
<path transform="matrix(1,0,0,-1,0,537.9938)" stroke-width=".8" stroke-linecap="butt" stroke-linejoin="round" fill="none" stroke="#000000" d="M 169.25824 65.740879 L 169.25824 62.240877 "/>
<text xml:space="preserve" transform="matrix(1 0 -0 1 0 537.9938)" font-size="20" font-family="DejaVuSans"><tspan y="-43.53775" x="153.3598 166.0798 172.4398">0.1</tspan></text>
<clipPath id="cp2">
<path transform="matrix(1,0,0,-1,0,537.9938)" d="M 62.996877 65.740879 L 530.5469 65.740879 L 530.5469 517.4209 L 62.996877 517.4209 Z "/>
</clipPath>
<g clip-path="url(#cp2)">
<path transform="matrix(1,0,0,-1,0,537.9938)" stroke-width=".8" stroke-linecap="square" stroke-linejoin="round" fill="none" stroke="#bebebe" d="M 254.26734 65.740879 L 254.26734 517.4209 "/>
</g>
<path transform="matrix(1,0,0,-1,0,537.9938)" d="M 254.26734 65.740879 L 254.26734 62.240877 "/>
<path transform="matrix(1,0,0,-1,0,537.9938)" stroke-width=".8" stroke-linecap="butt" stroke-linejoin="round" fill="none" stroke="#000000" d="M 254.26734 65.740879 L 254.26734 62.240877 "/>
<text xml:space="preserve" transform="matrix(1 0 -0 1 0 537.9938)" font-size="20" font-family="DejaVuSans"><tspan y="-43.53775" x="238.3689 251.0889 257.4489">0.2</tspan></text>
<clipPath id="cp3">
<path transform="matrix(1,0,0,-1,0,537.9938)" d="M 62.996877 65.740879 L 530.5469 65.740879 L 530.5469 517.4209 L 62.996877 517.4209 Z "/>
</clipPath>
<g clip-path="url(#cp3)">
<path transform="matrix(1,0,0,-1,0,537.9938)" stroke-width=".8" stroke-linecap="square" stroke-linejoin="round" fill="none" stroke="#bebebe" d="M 339.27644 65.740879 L 339.27644 517.4209 "/>
</g>
<path transform="matrix(1,0,0,-1,0,537.9938)" d="M 339.27644 65.740879 L 339.27644 62.240877 "/>
<path transform="matrix(1,0,0,-1,0,537.9938)" stroke-width=".8" stroke-linecap="butt" stroke-linejoin="round" fill="none" stroke="#000000" d="M 339.27644 65.740879 L 339.27644 62.240877 "/>
<text xml:space="preserve" transform="matrix(1 0 -0 1 0 537.9938)" font-size="20" font-family="DejaVuSans"><tspan y="-43.53775" x="323.378 336.098 342.458">0.3</tspan></text>
<clipPath id="cp4">
<path transform="matrix(1,0,0,-1,0,537.9938)" d="M 62.996877 65.740879 L 530.5469 65.740879 L 530.5469 517.4209 L 62.996877 517.4209 Z "/>
</clipPath>
<g clip-path="url(#cp4)">
<path transform="matrix(1,0,0,-1,0,537.9938)" stroke-width=".8" stroke-linecap="square" stroke-linejoin="round" fill="none" stroke="#bebebe" d="M 424.28553 65.740879 L 424.28553 517.4209 "/>
</g>
<path transform="matrix(1,0,0,-1,0,537.9938)" d="M 424.28553 65.740879 L 424.28553 62.240877 "/>
<path transform="matrix(1,0,0,-1,0,537.9938)" stroke-width=".8" stroke-linecap="butt" stroke-linejoin="round" fill="none" stroke="#000000" d="M 424.28553 65.740879 L 424.28553 62.240877 "/>
<text xml:space="preserve" transform="matrix(1 0 -0 1 0 537.9938)" font-size="20" font-family="DejaVuSans"><tspan y="-43.53775" x="408.3871 421.1071 427.4671">0.4</tspan></text>
<clipPath id="cp5">
<path transform="matrix(1,0,0,-1,0,537.9938)" d="M 62.996877 65.740879 L 530.5469 65.740879 L 530.5469 517.4209 L 62.996877 517.4209 Z "/>
</clipPath>
<g clip-path="url(#cp5)">
<path transform="matrix(1,0,0,-1,0,537.9938)" stroke-width=".8" stroke-linecap="square" stroke-linejoin="round" fill="none" stroke="#bebebe" d="M 509.29463 65.740879 L 509.29463 517.4209 "/>
</g>
<path transform="matrix(1,0,0,-1,0,537.9938)" d="M 509.29463 65.740879 L 509.29463 62.240877 "/>
<path transform="matrix(1,0,0,-1,0,537.9938)" stroke-width=".8" stroke-linecap="butt" stroke-linejoin="round" fill="none" stroke="#000000" d="M 509.29463 65.740879 L 509.29463 62.240877 "/>
<text xml:space="preserve" transform="matrix(1 0 -0 1 0 537.9938)" font-size="20" font-family="DejaVuSans"><tspan y="-43.53775" x="493.39619 506.11619 512.4762">0.5</tspan></text>
<text xml:space="preserve" transform="matrix(1 0 -0 1 190.27188 518.6123)" font-size="20" font-family="DejaVuSans"><tspan y="-.796875" x="0 15.400391 27.705079 40.40039 48.623048 60.878908 73.57422 85.83008 93.671878 99.228519 111.46484 124.140628 130.49805 136.05469 148.35938 160.19532 172.5 178.05664 184.41407 204.89258">Degradation level ()</tspan></text>
<clipPath id="cp6">
<path transform="matrix(.02,0,0,-.02,382.48869,517.8154)" d="M -1016 -351 L 1660 -351 L 1660 1068 L -1016 1068 Z "/>
</clipPath>
<g clip-path="url(#cp6)">
<path transform="matrix(.02,0,0,-.02,382.48869,517.8154)" d="M 347 476 C 297 476 255 458 222 422 C 186 384 163 335 151 273 C 138 207 142 156 163 118 C 183 80 218 62 267 62 C 314 62 355 81 391 119 C 426 156 450 207 463 273 C 474 332 470 382 450 422 C 431 458 397 476 347 476 M 361 547 L 659 547 L 642 457 L 541 457 C 566 406 572 345 559 273 C 541 183 505 113 451 63 C 396 12 329 -13 251 -13 C 173 -13 116 12 82 63 C 47 113 39 183 57 273 C 74 363 110 433 164 484 C 209 526 275 547 361 547 "/>
</g>
<clipPath id="cp7">
<path transform="matrix(1,0,0,-1,0,537.9938)" d="M 62.996877 65.740879 L 530.5469 65.740879 L 530.5469 517.4209 L 62.996877 517.4209 Z "/>
</clipPath>
<g clip-path="url(#cp7)">
<path transform="matrix(1,0,0,-1,0,537.9938)" stroke-width=".8" stroke-linecap="square" stroke-linejoin="round" fill="none" stroke="#bebebe" d="M 62.996877 79.57018 L 530.5469 79.57018 "/>
</g>
<path transform="matrix(1,0,0,-1,0,537.9938)" d="M 62.996877 79.57018 L 59.496877 79.57018 "/>
<path transform="matrix(1,0,0,-1,0,537.9938)" stroke-width=".8" stroke-linecap="butt" stroke-linejoin="round" fill="none" stroke="#000000" d="M 62.996877 79.57018 L 59.496877 79.57018 "/>
<text xml:space="preserve" transform="matrix(1 0 -0 1 0 537.9938)" font-size="20" font-family="DejaVuSans"><tspan y="-71.96861" x="43.278127">0</tspan></text>
<clipPath id="cp8">
<path transform="matrix(1,0,0,-1,0,537.9938)" d="M 62.996877 65.740879 L 530.5469 65.740879 L 530.5469 517.4209 L 62.996877 517.4209 Z "/>
</clipPath>
<g clip-path="url(#cp8)">
<path transform="matrix(1,0,0,-1,0,537.9938)" stroke-width=".8" stroke-linecap="square" stroke-linejoin="round" fill="none" stroke="#bebebe" d="M 62.996877 179.0106 L 530.5469 179.0106 "/>
</g>
<path transform="matrix(1,0,0,-1,0,537.9938)" d="M 62.996877 179.0106 L 59.496877 179.0106 "/>
<path transform="matrix(1,0,0,-1,0,537.9938)" stroke-width=".8" stroke-linecap="butt" stroke-linejoin="round" fill="none" stroke="#000000" d="M 62.996877 179.0106 L 59.496877 179.0106 "/>
<text xml:space="preserve" transform="matrix(1 0 -0 1 0 537.9938)" font-size="20" font-family="DejaVuSans"><tspan y="-171.40904" x="30.559376 43.279378">20</tspan></text>
<clipPath id="cp9">
<path transform="matrix(1,0,0,-1,0,537.9938)" d="M 62.996877 65.740879 L 530.5469 65.740879 L 530.5469 517.4209 L 62.996877 517.4209 Z "/>
</clipPath>
<g clip-path="url(#cp9)">
<path transform="matrix(1,0,0,-1,0,537.9938)" stroke-width=".8" stroke-linecap="square" stroke-linejoin="round" fill="none" stroke="#bebebe" d="M 62.996877 278.45103 L 530.5469 278.45103 "/>
</g>
<path transform="matrix(1,0,0,-1,0,537.9938)" d="M 62.996877 278.45103 L 59.496877 278.45103 "/>
<path transform="matrix(1,0,0,-1,0,537.9938)" stroke-width=".8" stroke-linecap="butt" stroke-linejoin="round" fill="none" stroke="#000000" d="M 62.996877 278.45103 L 59.496877 278.45103 "/>
<text xml:space="preserve" transform="matrix(1 0 -0 1 0 537.9938)" font-size="20" font-family="DejaVuSans"><tspan y="-270.84947" x="30.559376 43.279378">40</tspan></text>
<clipPath id="cp10">
<path transform="matrix(1,0,0,-1,0,537.9938)" d="M 62.996877 65.740879 L 530.5469 65.740879 L 530.5469 517.4209 L 62.996877 517.4209 Z "/>
</clipPath>
<g clip-path="url(#cp10)">
<path transform="matrix(1,0,0,-1,0,537.9938)" stroke-width=".8" stroke-linecap="square" stroke-linejoin="round" fill="none" stroke="#bebebe" d="M 62.996877 377.89146 L 530.5469 377.89146 "/>
</g>
<path transform="matrix(1,0,0,-1,0,537.9938)" d="M 62.996877 377.89146 L 59.496877 377.89146 "/>
<path transform="matrix(1,0,0,-1,0,537.9938)" stroke-width=".8" stroke-linecap="butt" stroke-linejoin="round" fill="none" stroke="#000000" d="M 62.996877 377.89146 L 59.496877 377.89146 "/>
<text xml:space="preserve" transform="matrix(1 0 -0 1 0 537.9938)" font-size="20" font-family="DejaVuSans"><tspan y="-370.2899" x="30.559376 43.279378">60</tspan></text>
<clipPath id="cp11">
<path transform="matrix(1,0,0,-1,0,537.9938)" d="M 62.996877 65.740879 L 530.5469 65.740879 L 530.5469 517.4209 L 62.996877 517.4209 Z "/>
</clipPath>
<g clip-path="url(#cp11)">
<path transform="matrix(1,0,0,-1,0,537.9938)" stroke-width=".8" stroke-linecap="square" stroke-linejoin="round" fill="none" stroke="#bebebe" d="M 62.996877 477.33189 L 530.5469 477.33189 "/>
</g>
<path transform="matrix(1,0,0,-1,0,537.9938)" d="M 62.996877 477.33189 L 59.496877 477.33189 "/>
<path transform="matrix(1,0,0,-1,0,537.9938)" stroke-width=".8" stroke-linecap="butt" stroke-linejoin="round" fill="none" stroke="#000000" d="M 62.996877 477.33189 L 59.496877 477.33189 "/>
<text xml:space="preserve" transform="matrix(1 0 -0 1 0 537.9938)" font-size="20" font-family="DejaVuSans"><tspan y="-469.73033" x="30.559376 43.279378">80</tspan></text>
<text xml:space="preserve" transform="matrix(0 -1 1 0 0 537.9938)" font-size="20" font-family="DejaVuSans"><tspan y="22.403126" x="228.63556 242.31555 253.31555 264.31556 276.99555 285.21556 297.47557 308.47557 320.31556 328.11555 347.11555">Accuracy(%)</tspan></text>
<clipPath id="cp12">
<path transform="matrix(1,0,0,-1,0,537.9938)" d="M 62.996877 65.740879 L 530.5469 65.740879 L 530.5469 517.4209 L 62.996877 517.4209 Z "/>
</clipPath>
<g clip-path="url(#cp12)">
<path transform="matrix(1,0,0,-1,0,537.9938)" stroke-width="1.5" stroke-linecap="square" stroke-linejoin="round" fill="none" stroke="#ff8c00" d="M 84.249149 496.88996 L 169.25824 415.67189 L 254.26734 242.03255 L 339.27644 135.5042 L 424.28553 96.96423 L 509.29463 86.27178 "/>
<clipPath id="cp13">
<path transform="matrix(1,0,0,-1,84.249149,41.10382)" d="M -8 -8 L 8 -8 L 8 8 L -8 8 Z "/>
</clipPath>
<g clip-path="url(#cp13)">
<path transform="matrix(1,0,0,-1,84.249149,41.10382)" d="M 0 3 L -3 -3 L 3 -3 Z " fill="#ff8c00"/>
<path transform="matrix(1,0,0,-1,84.249149,41.10382)" stroke-width="1" stroke-linecap="butt" stroke-miterlimit="10" stroke-linejoin="miter" fill="none" stroke="#ff8c00" d="M 0 3 L -3 -3 L 3 -3 Z "/>
</g>
<clipPath id="cp14">
<path transform="matrix(1,0,0,-1,169.25824,122.32191)" d="M -8 -8 L 8 -8 L 8 8 L -8 8 Z "/>
</clipPath>
<g clip-path="url(#cp14)">
<path transform="matrix(1,0,0,-1,169.25824,122.32191)" d="M 0 3 L -3 -3 L 3 -3 Z " fill="#ff8c00"/>
<path transform="matrix(1,0,0,-1,169.25824,122.32191)" stroke-width="1" stroke-linecap="butt" stroke-miterlimit="10" stroke-linejoin="miter" fill="none" stroke="#ff8c00" d="M 0 3 L -3 -3 L 3 -3 Z "/>
</g>
<clipPath id="cp15">
<path transform="matrix(1,0,0,-1,254.26734,295.96125)" d="M -8 -8 L 8 -8 L 8 8 L -8 8 Z "/>
</clipPath>
<g clip-path="url(#cp15)">
<path transform="matrix(1,0,0,-1,254.26734,295.96125)" d="M 0 3 L -3 -3 L 3 -3 Z " fill="#ff8c00"/>
<path transform="matrix(1,0,0,-1,254.26734,295.96125)" stroke-width="1" stroke-linecap="butt" stroke-miterlimit="10" stroke-linejoin="miter" fill="none" stroke="#ff8c00" d="M 0 3 L -3 -3 L 3 -3 Z "/>
</g>
<clipPath id="cp16">
<path transform="matrix(1,0,0,-1,339.27644,402.4896)" d="M -8 -8 L 8 -8 L 8 8 L -8 8 Z "/>
</clipPath>
<g clip-path="url(#cp16)">
<path transform="matrix(1,0,0,-1,339.27644,402.4896)" d="M 0 3 L -3 -3 L 3 -3 Z " fill="#ff8c00"/>
<path transform="matrix(1,0,0,-1,339.27644,402.4896)" stroke-width="1" stroke-linecap="butt" stroke-miterlimit="10" stroke-linejoin="miter" fill="none" stroke="#ff8c00" d="M 0 3 L -3 -3 L 3 -3 Z "/>
</g>
<clipPath id="cp17">
<path transform="matrix(1,0,0,-1,424.28553,441.02955)" d="M -8 -8 L 8 -8 L 8 8 L -8 8 Z "/>
</clipPath>
<g clip-path="url(#cp17)">
<path transform="matrix(1,0,0,-1,424.28553,441.02955)" d="M 0 3 L -3 -3 L 3 -3 Z " fill="#ff8c00"/>
<path transform="matrix(1,0,0,-1,424.28553,441.02955)" stroke-width="1" stroke-linecap="butt" stroke-miterlimit="10" stroke-linejoin="miter" fill="none" stroke="#ff8c00" d="M 0 3 L -3 -3 L 3 -3 Z "/>
</g>
<clipPath id="cp18">
<path transform="matrix(1,0,0,-1,509.29463,451.722)" d="M -8 -8 L 8 -8 L 8 8 L -8 8 Z "/>
</clipPath>
<g clip-path="url(#cp18)">
<path transform="matrix(1,0,0,-1,509.29463,451.722)" d="M 0 3 L -3 -3 L 3 -3 Z " fill="#ff8c00"/>
<path transform="matrix(1,0,0,-1,509.29463,451.722)" stroke-width="1" stroke-linecap="butt" stroke-miterlimit="10" stroke-linejoin="miter" fill="none" stroke="#ff8c00" d="M 0 3 L -3 -3 L 3 -3 Z "/>
</g>
</g>
<clipPath id="cp19">
<path transform="matrix(1,0,0,-1,0,537.9938)" d="M 62.996877 65.740879 L 530.5469 65.740879 L 530.5469 517.4209 L 62.996877 517.4209 Z "/>
</clipPath>
<g clip-path="url(#cp19)">
<path transform="matrix(1,0,0,-1,0,537.9938)" stroke-width="1.5" stroke-linecap="butt" stroke-dasharray="5.55,2.4" stroke-linejoin="round" fill="none" stroke="#ff8c00" d="M 84.249149 496.10426 L 169.25824 469.48115 L 254.26734 418.79844 L 339.27644 355.54734 L 424.28553 290.7542 L 509.29463 235.09195 "/>
</g>
<clipPath id="cp20">
<path transform="matrix(1,0,0,-1,0,537.9938)" d="M 62.996877 65.740879 L 530.5469 65.740879 L 530.5469 517.4209 L 62.996877 517.4209 Z "/>
</clipPath>
<g clip-path="url(#cp20)">
<path transform="matrix(1,0,0,-1,0,537.9938)" stroke-width="1.5" stroke-linecap="square" stroke-linejoin="round" fill="none" stroke="#008000" d="M 84.249149 479.40754 L 169.25824 473.20356 L 254.26734 458.47444 L 339.27644 442.91047 L 424.28553 427.1173 L 509.29463 409.64799 "/>
<clipPath id="cp21">
<path transform="matrix(1,0,0,-1,84.249149,58.586244)" d="M -8 -8 L 8 -8 L 8 8 L -8 8 Z "/>
</clipPath>
<g clip-path="url(#cp21)">
<path transform="matrix(1,0,0,-1,84.249149,58.586244)" d="M 0 -3 L 3 3 L -3 3 Z " fill="#008000"/>
<path transform="matrix(1,0,0,-1,84.249149,58.586244)" stroke-width="1" stroke-linecap="butt" stroke-miterlimit="10" stroke-linejoin="miter" fill="none" stroke="#008000" d="M 0 -3 L 3 3 L -3 3 Z "/>
</g>
<clipPath id="cp22">
<path transform="matrix(1,0,0,-1,169.25824,64.79022)" d="M -8 -8 L 8 -8 L 8 8 L -8 8 Z "/>
</clipPath>
<g clip-path="url(#cp22)">
<path transform="matrix(1,0,0,-1,169.25824,64.79022)" d="M 0 -3 L 3 3 L -3 3 Z " fill="#008000"/>
<path transform="matrix(1,0,0,-1,169.25824,64.79022)" stroke-width="1" stroke-linecap="butt" stroke-miterlimit="10" stroke-linejoin="miter" fill="none" stroke="#008000" d="M 0 -3 L 3 3 L -3 3 Z "/>
</g>
<clipPath id="cp23">
<path transform="matrix(1,0,0,-1,254.26734,79.51935)" d="M -8 -8 L 8 -8 L 8 8 L -8 8 Z "/>
</clipPath>
<g clip-path="url(#cp23)">
<path transform="matrix(1,0,0,-1,254.26734,79.51935)" d="M 0 -3 L 3 3 L -3 3 Z " fill="#008000"/>
<path transform="matrix(1,0,0,-1,254.26734,79.51935)" stroke-width="1" stroke-linecap="butt" stroke-miterlimit="10" stroke-linejoin="miter" fill="none" stroke="#008000" d="M 0 -3 L 3 3 L -3 3 Z "/>
</g>
<clipPath id="cp24">
<path transform="matrix(1,0,0,-1,339.27644,95.08331)" d="M -8 -8 L 8 -8 L 8 8 L -8 8 Z "/>
</clipPath>
<g clip-path="url(#cp24)">
<path transform="matrix(1,0,0,-1,339.27644,95.08331)" d="M 0 -3 L 3 3 L -3 3 Z " fill="#008000"/>
<path transform="matrix(1,0,0,-1,339.27644,95.08331)" stroke-width="1" stroke-linecap="butt" stroke-miterlimit="10" stroke-linejoin="miter" fill="none" stroke="#008000" d="M 0 -3 L 3 3 L -3 3 Z "/>
</g>
<clipPath id="cp25">
<path transform="matrix(1,0,0,-1,424.28553,110.87645)" d="M -8 -8 L 8 -8 L 8 8 L -8 8 Z "/>
</clipPath>
<g clip-path="url(#cp25)">
<path transform="matrix(1,0,0,-1,424.28553,110.87645)" d="M 0 -3 L 3 3 L -3 3 Z " fill="#008000"/>
<path transform="matrix(1,0,0,-1,424.28553,110.87645)" stroke-width="1" stroke-linecap="butt" stroke-miterlimit="10" stroke-linejoin="miter" fill="none" stroke="#008000" d="M 0 -3 L 3 3 L -3 3 Z "/>
</g>
<clipPath id="cp26">
<path transform="matrix(1,0,0,-1,509.29463,128.3458)" d="M -8 -8 L 8 -8 L 8 8 L -8 8 Z "/>
</clipPath>
<g clip-path="url(#cp26)">
<path transform="matrix(1,0,0,-1,509.29463,128.3458)" d="M 0 -3 L 3 3 L -3 3 Z " fill="#008000"/>
<path transform="matrix(1,0,0,-1,509.29463,128.3458)" stroke-width="1" stroke-linecap="butt" stroke-miterlimit="10" stroke-linejoin="miter" fill="none" stroke="#008000" d="M 0 -3 L 3 3 L -3 3 Z "/>
</g>
</g>
<clipPath id="cp27">
<path transform="matrix(1,0,0,-1,0,537.9938)" d="M 62.996877 65.740879 L 530.5469 65.740879 L 530.5469 517.4209 L 62.996877 517.4209 Z "/>
</clipPath>
<g clip-path="url(#cp27)">
<path transform="matrix(1,0,0,-1,0,537.9938)" stroke-width="1.5" stroke-linecap="butt" stroke-dasharray="5.55,2.4" stroke-linejoin="round" fill="none" stroke="#008000" d="M 84.249149 478.65455 L 169.25824 469.56956 L 254.26734 450.62043 L 339.27644 422.93659 L 424.28553 389.3958 L 509.29463 351.53358 "/>
</g>
<clipPath id="cp28">
<path transform="matrix(1,0,0,-1,0,537.9938)" d="M 62.996877 65.740879 L 530.5469 65.740879 L 530.5469 517.4209 L 62.996877 517.4209 Z "/>
</clipPath>
<g clip-path="url(#cp28)">
<path transform="matrix(1,0,0,-1,0,537.9938)" stroke-width="1.5" stroke-linecap="square" stroke-linejoin="round" fill="none" stroke="#0000ff" d="M 84.249149 484.87489 L 169.25824 415.77339 L 254.26734 294.42097 L 339.27644 176.77455 L 424.28553 117.62233 L 509.29463 92.086177 "/>
<clipPath id="cp29">
<path transform="matrix(1,0,0,-1,84.249149,53.118898)" d="M -7.7716386 -7.7716386 L 7.7716386 -7.7716386 L 7.7716386 7.7716386 L -7.7716386 7.7716386 Z "/>
</clipPath>
<g clip-path="url(#cp29)">
<path transform="matrix(1,0,0,-1,84.249149,53.118898)" d="M -1.14805 2.771639 L -2.771639 1.14805 L -2.771639 -1.14805 L -1.14805 -2.771639 L 1.14805 -2.771639 L 2.771639 -1.14805 L 2.771639 1.14805 L 1.14805 2.771639 Z " fill="#0000ff"/>
<path transform="matrix(1,0,0,-1,84.249149,53.118898)" stroke-width="1" stroke-linecap="butt" stroke-miterlimit="10" stroke-linejoin="miter" fill="none" stroke="#0000ff" d="M -1.14805 2.771639 L -2.771639 1.14805 L -2.771639 -1.14805 L -1.14805 -2.771639 L 1.14805 -2.771639 L 2.771639 -1.14805 L 2.771639 1.14805 L 1.14805 2.771639 Z "/>
</g>
<clipPath id="cp30">
<path transform="matrix(1,0,0,-1,169.25824,122.2204)" d="M -7.7716386 -7.7716386 L 7.7716386 -7.7716386 L 7.7716386 7.7716386 L -7.7716386 7.7716386 Z "/>
</clipPath>
<g clip-path="url(#cp30)">
<path transform="matrix(1,0,0,-1,169.25824,122.2204)" d="M -1.14805 2.771639 L -2.771639 1.14805 L -2.771639 -1.14805 L -1.14805 -2.771639 L 1.14805 -2.771639 L 2.771639 -1.14805 L 2.771639 1.14805 L 1.14805 2.771639 Z " fill="#0000ff"/>
<path transform="matrix(1,0,0,-1,169.25824,122.2204)" stroke-width="1" stroke-linecap="butt" stroke-miterlimit="10" stroke-linejoin="miter" fill="none" stroke="#0000ff" d="M -1.14805 2.771639 L -2.771639 1.14805 L -2.771639 -1.14805 L -1.14805 -2.771639 L 1.14805 -2.771639 L 2.771639 -1.14805 L 2.771639 1.14805 L 1.14805 2.771639 Z "/>
</g>
<clipPath id="cp31">
<path transform="matrix(1,0,0,-1,254.26734,243.57282)" d="M -7.7716386 -7.7716386 L 7.7716386 -7.7716386 L 7.7716386 7.7716386 L -7.7716386 7.7716386 Z "/>
</clipPath>
<g clip-path="url(#cp31)">
<path transform="matrix(1,0,0,-1,254.26734,243.57282)" d="M -1.14805 2.771639 L -2.771639 1.14805 L -2.771639 -1.14805 L -1.14805 -2.771639 L 1.14805 -2.771639 L 2.771639 -1.14805 L 2.771639 1.14805 L 1.14805 2.771639 Z " fill="#0000ff"/>
<path transform="matrix(1,0,0,-1,254.26734,243.57282)" stroke-width="1" stroke-linecap="butt" stroke-miterlimit="10" stroke-linejoin="miter" fill="none" stroke="#0000ff" d="M -1.14805 2.771639 L -2.771639 1.14805 L -2.771639 -1.14805 L -1.14805 -2.771639 L 1.14805 -2.771639 L 2.771639 -1.14805 L 2.771639 1.14805 L 1.14805 2.771639 Z "/>
</g>
<clipPath id="cp32">
<path transform="matrix(1,0,0,-1,339.27644,361.2192)" d="M -7.7716386 -7.7716386 L 7.7716386 -7.7716386 L 7.7716386 7.7716386 L -7.7716386 7.7716386 Z "/>
</clipPath>
<g clip-path="url(#cp32)">
<path transform="matrix(1,0,0,-1,339.27644,361.2192)" d="M -1.14805 2.771639 L -2.771639 1.14805 L -2.771639 -1.14805 L -1.14805 -2.771639 L 1.14805 -2.771639 L 2.771639 -1.14805 L 2.771639 1.14805 L 1.14805 2.771639 Z " fill="#0000ff"/>
<path transform="matrix(1,0,0,-1,339.27644,361.2192)" stroke-width="1" stroke-linecap="butt" stroke-miterlimit="10" stroke-linejoin="miter" fill="none" stroke="#0000ff" d="M -1.14805 2.771639 L -2.771639 1.14805 L -2.771639 -1.14805 L -1.14805 -2.771639 L 1.14805 -2.771639 L 2.771639 -1.14805 L 2.771639 1.14805 L 1.14805 2.771639 Z "/>
</g>
<clipPath id="cp33">
<path transform="matrix(1,0,0,-1,424.28553,420.37144)" d="M -7.7716386 -7.7716386 L 7.7716386 -7.7716386 L 7.7716386 7.7716386 L -7.7716386 7.7716386 Z "/>
</clipPath>
<g clip-path="url(#cp33)">
<path transform="matrix(1,0,0,-1,424.28553,420.37144)" d="M -1.14805 2.771639 L -2.771639 1.14805 L -2.771639 -1.14805 L -1.14805 -2.771639 L 1.14805 -2.771639 L 2.771639 -1.14805 L 2.771639 1.14805 L 1.14805 2.771639 Z " fill="#0000ff"/>
<path transform="matrix(1,0,0,-1,424.28553,420.37144)" stroke-width="1" stroke-linecap="butt" stroke-miterlimit="10" stroke-linejoin="miter" fill="none" stroke="#0000ff" d="M -1.14805 2.771639 L -2.771639 1.14805 L -2.771639 -1.14805 L -1.14805 -2.771639 L 1.14805 -2.771639 L 2.771639 -1.14805 L 2.771639 1.14805 L 1.14805 2.771639 Z "/>
</g>
<clipPath id="cp34">
<path transform="matrix(1,0,0,-1,509.29463,445.9076)" d="M -7.7716386 -7.7716386 L 7.7716386 -7.7716386 L 7.7716386 7.7716386 L -7.7716386 7.7716386 Z "/>
</clipPath>
<g clip-path="url(#cp34)">
<path transform="matrix(1,0,0,-1,509.29463,445.9076)" d="M -1.14805 2.771639 L -2.771639 1.14805 L -2.771639 -1.14805 L -1.14805 -2.771639 L 1.14805 -2.771639 L 2.771639 -1.14805 L 2.771639 1.14805 L 1.14805 2.771639 Z " fill="#0000ff"/>
<path transform="matrix(1,0,0,-1,509.29463,445.9076)" stroke-width="1" stroke-linecap="butt" stroke-miterlimit="10" stroke-linejoin="miter" fill="none" stroke="#0000ff" d="M -1.14805 2.771639 L -2.771639 1.14805 L -2.771639 -1.14805 L -1.14805 -2.771639 L 1.14805 -2.771639 L 2.771639 -1.14805 L 2.771639 1.14805 L 1.14805 2.771639 Z "/>
</g>
</g>
<clipPath id="cp35">
<path transform="matrix(1,0,0,-1,0,537.9938)" d="M 62.996877 65.740879 L 530.5469 65.740879 L 530.5469 517.4209 L 62.996877 517.4209 Z "/>
</clipPath>
<g clip-path="url(#cp35)">
<path transform="matrix(1,0,0,-1,0,537.9938)" stroke-width="1.5" stroke-linecap="butt" stroke-dasharray="5.55,2.4" stroke-linejoin="round" fill="none" stroke="#0000ff" d="M 84.249149 484.90763 L 169.25824 475.0631 L 254.26734 459.6137 L 339.27644 440.66786 L 424.28553 417.9865 L 509.29463 395.41648 "/>
</g>
<clipPath id="cp36">
<path transform="matrix(1,0,0,-1,0,537.9938)" d="M 62.996877 65.740879 L 530.5469 65.740879 L 530.5469 517.4209 L 62.996877 517.4209 Z "/>
</clipPath>
<g clip-path="url(#cp36)">
<path transform="matrix(1,0,0,-1,0,537.9938)" stroke-width="1.5" stroke-linecap="square" stroke-linejoin="round" fill="none" stroke="#bf00bf" d="M 84.249149 476.29734 L 169.25824 453.74043 L 254.26734 431.53376 L 339.27644 409.53993 L 424.28553 390.06697 L 509.29463 367.4642 "/>
<clipPath id="cp37">
<path transform="matrix(1,0,0,-1,84.249149,61.69644)" d="M -8 -8 L 8 -8 L 8 8 L -8 8 Z "/>
</clipPath>
<g clip-path="url(#cp37)">
<path transform="matrix(1,0,0,-1,84.249149,61.69644)" d="M -1.5 -3 L 0 -1.5 L 1.5 -3 L 3 -1.5 L 1.5 0 L 3 1.5 L 1.5 3 L 0 1.5 L -1.5 3 L -3 1.5 L -1.5 0 L -3 -1.5 Z " fill="#bf00bf"/>
<path transform="matrix(1,0,0,-1,84.249149,61.69644)" stroke-width="1" stroke-linecap="butt" stroke-miterlimit="10" stroke-linejoin="miter" fill="none" stroke="#bf00bf" d="M -1.5 -3 L 0 -1.5 L 1.5 -3 L 3 -1.5 L 1.5 0 L 3 1.5 L 1.5 3 L 0 1.5 L -1.5 3 L -3 1.5 L -1.5 0 L -3 -1.5 Z "/>
</g>
<clipPath id="cp38">
<path transform="matrix(1,0,0,-1,169.25824,84.25339)" d="M -8 -8 L 8 -8 L 8 8 L -8 8 Z "/>
</clipPath>
<g clip-path="url(#cp38)">
<path transform="matrix(1,0,0,-1,169.25824,84.25339)" d="M -1.5 -3 L 0 -1.5 L 1.5 -3 L 3 -1.5 L 1.5 0 L 3 1.5 L 1.5 3 L 0 1.5 L -1.5 3 L -3 1.5 L -1.5 0 L -3 -1.5 Z " fill="#bf00bf"/>
<path transform="matrix(1,0,0,-1,169.25824,84.25339)" stroke-width="1" stroke-linecap="butt" stroke-miterlimit="10" stroke-linejoin="miter" fill="none" stroke="#bf00bf" d="M -1.5 -3 L 0 -1.5 L 1.5 -3 L 3 -1.5 L 1.5 0 L 3 1.5 L 1.5 3 L 0 1.5 L -1.5 3 L -3 1.5 L -1.5 0 L -3 -1.5 Z "/>
</g>
<clipPath id="cp39">
<path transform="matrix(1,0,0,-1,254.26734,106.46002)" d="M -8 -8 L 8 -8 L 8 8 L -8 8 Z "/>
</clipPath>
<g clip-path="url(#cp39)">
<path transform="matrix(1,0,0,-1,254.26734,106.46002)" d="M -1.5 -3 L 0 -1.5 L 1.5 -3 L 3 -1.5 L 1.5 0 L 3 1.5 L 1.5 3 L 0 1.5 L -1.5 3 L -3 1.5 L -1.5 0 L -3 -1.5 Z " fill="#bf00bf"/>
<path transform="matrix(1,0,0,-1,254.26734,106.46002)" stroke-width="1" stroke-linecap="butt" stroke-miterlimit="10" stroke-linejoin="miter" fill="none" stroke="#bf00bf" d="M -1.5 -3 L 0 -1.5 L 1.5 -3 L 3 -1.5 L 1.5 0 L 3 1.5 L 1.5 3 L 0 1.5 L -1.5 3 L -3 1.5 L -1.5 0 L -3 -1.5 Z "/>
</g>
<clipPath id="cp40">
<path transform="matrix(1,0,0,-1,339.27644,128.45386)" d="M -8 -8 L 8 -8 L 8 8 L -8 8 Z "/>
</clipPath>
<g clip-path="url(#cp40)">
<path transform="matrix(1,0,0,-1,339.27644,128.45386)" d="M -1.5 -3 L 0 -1.5 L 1.5 -3 L 3 -1.5 L 1.5 0 L 3 1.5 L 1.5 3 L 0 1.5 L -1.5 3 L -3 1.5 L -1.5 0 L -3 -1.5 Z " fill="#bf00bf"/>
<path transform="matrix(1,0,0,-1,339.27644,128.45386)" stroke-width="1" stroke-linecap="butt" stroke-miterlimit="10" stroke-linejoin="miter" fill="none" stroke="#bf00bf" d="M -1.5 -3 L 0 -1.5 L 1.5 -3 L 3 -1.5 L 1.5 0 L 3 1.5 L 1.5 3 L 0 1.5 L -1.5 3 L -3 1.5 L -1.5 0 L -3 -1.5 Z "/>
</g>
<clipPath id="cp41">
<path transform="matrix(1,0,0,-1,424.28553,147.92682)" d="M -8 -8 L 8 -8 L 8 8 L -8 8 Z "/>
</clipPath>
<g clip-path="url(#cp41)">
<path transform="matrix(1,0,0,-1,424.28553,147.92682)" d="M -1.5 -3 L 0 -1.5 L 1.5 -3 L 3 -1.5 L 1.5 0 L 3 1.5 L 1.5 3 L 0 1.5 L -1.5 3 L -3 1.5 L -1.5 0 L -3 -1.5 Z " fill="#bf00bf"/>
<path transform="matrix(1,0,0,-1,424.28553,147.92682)" stroke-width="1" stroke-linecap="butt" stroke-miterlimit="10" stroke-linejoin="miter" fill="none" stroke="#bf00bf" d="M -1.5 -3 L 0 -1.5 L 1.5 -3 L 3 -1.5 L 1.5 0 L 3 1.5 L 1.5 3 L 0 1.5 L -1.5 3 L -3 1.5 L -1.5 0 L -3 -1.5 Z "/>
</g>
<clipPath id="cp42">
<path transform="matrix(1,0,0,-1,509.29463,170.5296)" d="M -8 -8 L 8 -8 L 8 8 L -8 8 Z "/>
</clipPath>
<g clip-path="url(#cp42)">
<path transform="matrix(1,0,0,-1,509.29463,170.5296)" d="M -1.5 -3 L 0 -1.5 L 1.5 -3 L 3 -1.5 L 1.5 0 L 3 1.5 L 1.5 3 L 0 1.5 L -1.5 3 L -3 1.5 L -1.5 0 L -3 -1.5 Z " fill="#bf00bf"/>
<path transform="matrix(1,0,0,-1,509.29463,170.5296)" stroke-width="1" stroke-linecap="butt" stroke-miterlimit="10" stroke-linejoin="miter" fill="none" stroke="#bf00bf" d="M -1.5 -3 L 0 -1.5 L 1.5 -3 L 3 -1.5 L 1.5 0 L 3 1.5 L 1.5 3 L 0 1.5 L -1.5 3 L -3 1.5 L -1.5 0 L -3 -1.5 Z "/>
</g>
</g>
<clipPath id="cp43">
<path transform="matrix(1,0,0,-1,0,537.9938)" d="M 62.996877 65.740879 L 530.5469 65.740879 L 530.5469 517.4209 L 62.996877 517.4209 Z "/>
</clipPath>
<g clip-path="url(#cp43)">
<path transform="matrix(1,0,0,-1,0,537.9938)" stroke-width="1.5" stroke-linecap="butt" stroke-dasharray="5.55,2.4" stroke-linejoin="round" fill="none" stroke="#bf00bf" d="M 84.249149 486.90467 L 169.25824 469.5008 L 254.26734 442.76969 L 339.27644 414.26414 L 424.28553 386.47883 L 509.29463 353.4586 "/>
</g>
<clipPath id="cp44">
<path transform="matrix(1,0,0,-1,0,537.9938)" d="M 62.996877 65.740879 L 530.5469 65.740879 L 530.5469 517.4209 L 62.996877 517.4209 Z "/>
</clipPath>
<g clip-path="url(#cp44)">
<path transform="matrix(1,0,0,-1,0,537.9938)" stroke-width="1.5" stroke-linecap="square" stroke-linejoin="round" fill="none" stroke="#ff0000" d="M 84.249149 483.33616 L 169.25824 472.7845 L 254.26734 452.4996 L 339.27644 426.80305 L 424.28553 396.1629 L 509.29463 359.76078 "/>
<clipPath id="cp45">
<path transform="matrix(1,0,0,-1,84.249149,54.657625)" d="M -8 -8 L 8 -8 L 8 8 L -8 8 Z "/>
</clipPath>
<g clip-path="url(#cp45)">
<path transform="matrix(1,0,0,-1,84.249149,54.657625)" d="M -3 -3 L 3 -3 L 3 3 L -3 3 Z " fill="#ff0000"/>
<path transform="matrix(1,0,0,-1,84.249149,54.657625)" stroke-width="1" stroke-linecap="butt" stroke-miterlimit="10" stroke-linejoin="miter" fill="none" stroke="#ff0000" d="M -3 -3 L 3 -3 L 3 3 L -3 3 Z "/>
</g>
<clipPath id="cp46">
<path transform="matrix(1,0,0,-1,169.25824,65.2093)" d="M -8 -8 L 8 -8 L 8 8 L -8 8 Z "/>
</clipPath>
<g clip-path="url(#cp46)">
<path transform="matrix(1,0,0,-1,169.25824,65.2093)" d="M -3 -3 L 3 -3 L 3 3 L -3 3 Z " fill="#ff0000"/>
<path transform="matrix(1,0,0,-1,169.25824,65.2093)" stroke-width="1" stroke-linecap="butt" stroke-miterlimit="10" stroke-linejoin="miter" fill="none" stroke="#ff0000" d="M -3 -3 L 3 -3 L 3 3 L -3 3 Z "/>
</g>
<clipPath id="cp47">
<path transform="matrix(1,0,0,-1,254.26734,85.49417)" d="M -8 -8 L 8 -8 L 8 8 L -8 8 Z "/>
</clipPath>
<g clip-path="url(#cp47)">
<path transform="matrix(1,0,0,-1,254.26734,85.49417)" d="M -3 -3 L 3 -3 L 3 3 L -3 3 Z " fill="#ff0000"/>
<path transform="matrix(1,0,0,-1,254.26734,85.49417)" stroke-width="1" stroke-linecap="butt" stroke-miterlimit="10" stroke-linejoin="miter" fill="none" stroke="#ff0000" d="M -3 -3 L 3 -3 L 3 3 L -3 3 Z "/>
</g>
<clipPath id="cp48">
<path transform="matrix(1,0,0,-1,339.27644,111.19075)" d="M -8 -8 L 8 -8 L 8 8 L -8 8 Z "/>
</clipPath>
<g clip-path="url(#cp48)">
<path transform="matrix(1,0,0,-1,339.27644,111.19075)" d="M -3 -3 L 3 -3 L 3 3 L -3 3 Z " fill="#ff0000"/>
<path transform="matrix(1,0,0,-1,339.27644,111.19075)" stroke-width="1" stroke-linecap="butt" stroke-miterlimit="10" stroke-linejoin="miter" fill="none" stroke="#ff0000" d="M -3 -3 L 3 -3 L 3 3 L -3 3 Z "/>
</g>
<clipPath id="cp49">
<path transform="matrix(1,0,0,-1,424.28553,141.83087)" d="M -8 -8 L 8 -8 L 8 8 L -8 8 Z "/>
</clipPath>
<g clip-path="url(#cp49)">
<path transform="matrix(1,0,0,-1,424.28553,141.83087)" d="M -3 -3 L 3 -3 L 3 3 L -3 3 Z " fill="#ff0000"/>
<path transform="matrix(1,0,0,-1,424.28553,141.83087)" stroke-width="1" stroke-linecap="butt" stroke-miterlimit="10" stroke-linejoin="miter" fill="none" stroke="#ff0000" d="M -3 -3 L 3 -3 L 3 3 L -3 3 Z "/>
</g>
<clipPath id="cp50">
<path transform="matrix(1,0,0,-1,509.29463,178.233)" d="M -8 -8 L 8 -8 L 8 8 L -8 8 Z "/>
</clipPath>
<g clip-path="url(#cp50)">
<path transform="matrix(1,0,0,-1,509.29463,178.233)" d="M -3 -3 L 3 -3 L 3 3 L -3 3 Z " fill="#ff0000"/>
<path transform="matrix(1,0,0,-1,509.29463,178.233)" stroke-width="1" stroke-linecap="butt" stroke-miterlimit="10" stroke-linejoin="miter" fill="none" stroke="#ff0000" d="M -3 -3 L 3 -3 L 3 3 L -3 3 Z "/>
</g>
</g>
<clipPath id="cp51">
<path transform="matrix(1,0,0,-1,0,537.9938)" d="M 62.996877 65.740879 L 530.5469 65.740879 L 530.5469 517.4209 L 62.996877 517.4209 Z "/>
</clipPath>
<g clip-path="url(#cp51)">
<path transform="matrix(1,0,0,-1,0,537.9938)" stroke-width="1.5" stroke-linecap="butt" stroke-dasharray="5.55,2.4" stroke-linejoin="round" fill="none" stroke="#ff0000" d="M 84.249149 491.29167 L 169.25824 477.96049 L 254.26734 454.37226 L 339.27644 425.10719 L 424.28553 391.4027 L 509.29463 351.22584 "/>
</g>
<path transform="matrix(1,0,0,-1,0,537.9938)" stroke-width=".8" stroke-linecap="square" stroke-miterlimit="10" stroke-linejoin="miter" fill="none" stroke="#000000" d="M 62.996877 65.740879 L 62.996877 517.4209 "/>
<path transform="matrix(1,0,0,-1,0,537.9938)" stroke-width=".8" stroke-linecap="square" stroke-miterlimit="10" stroke-linejoin="miter" fill="none" stroke="#000000" d="M 530.5469 65.740879 L 530.5469 517.4209 "/>
<path transform="matrix(1,0,0,-1,0,537.9938)" stroke-width=".8" stroke-linecap="square" stroke-miterlimit="10" stroke-linejoin="miter" fill="none" stroke="#000000" d="M 62.996877 65.740879 L 530.5469 65.740879 "/>
<path transform="matrix(1,0,0,-1,0,537.9938)" stroke-width=".8" stroke-linecap="square" stroke-miterlimit="10" stroke-linejoin="miter" fill="none" stroke="#000000" d="M 62.996877 517.4209 L 530.5469 517.4209 "/>
<g>
<path transform="matrix(1,0,0,-1,0,537.9938)" d="M 544.5469 7.2 L 823.2656 7.2 C 825.9323 7.2 827.2656 8.533333 827.2656 11.2 L 827.2656 526.79379 C 827.2656 529.4604 825.9323 530.79379 823.2656 530.79379 L 544.5469 530.79379 C 541.8802 530.79379 540.5469 529.4604 540.5469 526.79379 L 540.5469 11.2 C 540.5469 8.533333 541.8802 7.2 544.5469 7.2 Z " fill="#ffffff" fill-opacity=".8"/>
<path transform="matrix(1,0,0,-1,0,537.9938)" stroke-width="1" stroke-linecap="butt" stroke-miterlimit="10" stroke-linejoin="miter" fill="none" stroke="#d5d6d5" stroke-opacity=".8" d="M 544.5469 7.2 L 823.2656 7.2 C 825.9323 7.2 827.2656 8.533333 827.2656 11.2 L 827.2656 526.79379 C 827.2656 529.4604 825.9323 530.79379 823.2656 530.79379 L 544.5469 530.79379 C 541.8802 530.79379 540.5469 529.4604 540.5469 526.79379 L 540.5469 11.2 C 540.5469 8.533333 541.8802 7.2 544.5469 7.2 Z "/>
</g>
<path transform="matrix(1,0,0,-1,0,537.9938)" stroke-width="1.5" stroke-linecap="square" stroke-linejoin="round" fill="none" stroke="#ff8c00" d="M 548.5469 501.3125 L 588.5469 501.3125 "/>
<path transform="matrix(1,0,0,-1,0,537.9938)" d="M 568.5469 504.3125 L 565.5469 498.3125 L 571.5469 498.3125 Z " fill="#ff8c00"/>
<path transform="matrix(1,0,0,-1,0,537.9938)" stroke-width="1" stroke-linecap="butt" stroke-miterlimit="10" stroke-linejoin="miter" fill="none" stroke="#ff8c00" d="M 568.5469 504.3125 L 565.5469 498.3125 L 571.5469 498.3125 Z "/>
<text xml:space="preserve" transform="matrix(1 0 -0 1 0 537.9938)" font-size="20" font-family="DejaVuSans"><tspan y="-507.59065" x="604.5469 616.6069 624.82687 637.12686 644.96688 653.1868 665.44686 671.00686 683.6868 695.9868 708.6868">Pretrained,</tspan></text>
<text xml:space="preserve" transform="matrix(1 0 -0 1 0 537.9938)" font-size="20" font-family="DejaVuSans"><tspan y="-485.1906" x="604.5469 610.90689 618.7469 631.0469 641.46688 649.3069 655.6669 667.90689 680.58688 686.94686 699.64688 711.94686 724.64688 732.8668 745.12686 757.82687 770.12686"> test on degraded</tspan></text>
<path transform="matrix(1,0,0,-1,0,537.9938)" stroke-width="1.5" stroke-linecap="butt" stroke-dasharray="5.55,2.4" stroke-linejoin="round" fill="none" stroke="#ff8c00" d="M 548.5469 449.55314 L 588.5469 449.55314 "/>
<text xml:space="preserve" transform="matrix(1 0 -0 1 0 537.9938)" font-size="20" font-family="DejaVuSans"><tspan y="-455.83125" x="604.5469 616.6069 624.82687 637.12686 644.96688 653.1868 665.44686 671.00686 683.6868 695.9868 708.6868">Pretrained,</tspan></text>
<text xml:space="preserve" transform="matrix(1 0 -0 1 0 537.9938)" font-size="20" font-family="DejaVuSans"><tspan y="-433.43125" x="604.5469 610.90689 618.7469 631.0469 641.46688 649.3069 655.6669 667.90689 680.58688 686.94686 695.1668 707.4668 717.8868 725.7268 737.9668 746.18679 758.48678"> test on restored</tspan></text>
<path transform="matrix(1,0,0,-1,0,537.9938)" stroke-width="1.5" stroke-linecap="square" stroke-linejoin="round" fill="none" stroke="#008000" d="M 548.5469 397.79377 L 588.5469 397.79377 "/>
<path transform="matrix(1,0,0,-1,0,537.9938)" d="M 568.5469 394.79377 L 571.5469 400.79377 L 565.5469 400.79377 Z " fill="#008000"/>
<path transform="matrix(1,0,0,-1,0,537.9938)" stroke-width="1" stroke-linecap="butt" stroke-miterlimit="10" stroke-linejoin="miter" fill="none" stroke="#008000" d="M 568.5469 394.79377 L 571.5469 400.79377 L 565.5469 400.79377 Z "/>
<text xml:space="preserve" transform="matrix(1 0 -0 1 0 537.9938)" font-size="20" font-family="DejaVuSans"><tspan y="-404.07188" x="604.5469 618.4469 630.7469 638.5869 646.8069 659.0669 664.6269 677.3069 683.6669 691.46688 703.70687 716.38687 722.7468 735.4268 747.6668 753.2268 763.6468 775.4868 783.2868">Retrain (on noisy),</tspan></text>
<text xml:space="preserve" transform="matrix(1 0 -0 1 0 537.9938)" font-size="20" font-family="DejaVuSans"><tspan y="-381.67189" x="604.5469 610.90689 618.7469 631.0469 641.46688 649.3069 655.6669 667.90689 680.58688 686.94686 699.64688 711.94686 724.64688 732.8668 745.12686 757.82687 770.12686"> test on degraded</tspan></text>
<path transform="matrix(1,0,0,-1,0,537.9938)" stroke-width="1.5" stroke-linecap="butt" stroke-dasharray="5.55,2.4" stroke-linejoin="round" fill="none" stroke="#008000" d="M 548.5469 346.03437 L 588.5469 346.03437 "/>
<text xml:space="preserve" transform="matrix(1 0 -0 1 0 537.9938)" font-size="20" font-family="DejaVuSans"><tspan y="-352.3125" x="604.5469 618.4469 630.7469 638.5869 646.8069 659.0669 664.6269 677.3069 683.6669 691.46688 703.70687 716.38687 722.7468 735.4268 747.6668 753.2268 763.6468 775.4868 783.2868">Retrain (on noisy),</tspan></text>
<text xml:space="preserve" transform="matrix(1 0 -0 1 0 537.9938)" font-size="20" font-family="DejaVuSans"><tspan y="-329.9125" x="604.5469 610.90689 618.7469 631.0469 641.46688 649.3069 655.6669 667.90689 680.58688 686.94686 695.1668 707.4668 717.8868 725.7268 737.9668 746.18679 758.48678"> test on restored</tspan></text>
<path transform="matrix(1,0,0,-1,0,537.9938)" stroke-width="1.5" stroke-linecap="square" stroke-linejoin="round" fill="none" stroke="#0000ff" d="M 548.5469 294.275 L 588.5469 294.275 "/>
<path transform="matrix(1,0,0,-1,0,537.9938)" d="M 567.3988 297.04664 L 565.7752 295.42308 L 565.7752 293.12696 L 567.3988 291.50337 L 569.69497 291.50337 L 571.31857 293.12696 L 571.31857 295.42308 L 569.69497 297.04664 Z " fill="#0000ff"/>
<path transform="matrix(1,0,0,-1,0,537.9938)" stroke-width="1" stroke-linecap="butt" stroke-miterlimit="10" stroke-linejoin="miter" fill="none" stroke="#0000ff" d="M 567.3988 297.04664 L 565.7752 295.42308 L 565.7752 293.12696 L 567.3988 291.50337 L 569.69497 291.50337 L 571.31857 293.12696 L 571.31857 295.42308 L 569.69497 297.04664 Z "/>
<text xml:space="preserve" transform="matrix(1 0 -0 1 0 537.9938)" font-size="20" font-family="DejaVuSans"><tspan y="-300.55314" x="604.5469 618.4469 630.7469 638.5869 646.8069 659.0669 664.6269 677.3069 683.6669 691.46688 703.70687 716.38687 722.7468 730.9668 743.2668 753.68679 761.5268 773.7668 781.98678 794.28677 806.98678 814.78677">Retrain (on restored),</tspan></text>
<text xml:space="preserve" transform="matrix(1 0 -0 1 0 537.9938)" font-size="20" font-family="DejaVuSans"><tspan y="-278.15315" x="604.5469 610.90689 618.7469 631.0469 641.46688 649.3069 655.6669 667.90689 680.58688 686.94686 699.64688 711.94686 724.64688 732.8668 745.12686 757.82687 770.12686"> test on degraded</tspan></text>
<path transform="matrix(1,0,0,-1,0,537.9938)" stroke-width="1.5" stroke-linecap="butt" stroke-dasharray="5.55,2.4" stroke-linejoin="round" fill="none" stroke="#0000ff" d="M 548.5469 242.51563 L 588.5469 242.51563 "/>
<text xml:space="preserve" transform="matrix(1 0 -0 1 0 537.9938)" font-size="20" font-family="DejaVuSans"><tspan y="-248.79375" x="604.5469 618.4469 630.7469 638.5869 646.8069 659.0669 664.6269 677.3069 683.6669 691.46688 703.70687 716.38687 722.7468 730.9668 743.2668 753.68679 761.5268 773.7668 781.98678 794.28677 806.98678 814.78677">Retrain (on restored),</tspan></text>
<text xml:space="preserve" transform="matrix(1 0 -0 1 0 537.9938)" font-size="20" font-family="DejaVuSans"><tspan y="-226.39376" x="604.5469 610.90689 618.7469 631.0469 641.46688 649.3069 655.6669 667.90689 680.58688 686.94686 695.1668 707.4668 717.8868 725.7268 737.9668 746.18679 758.48678"> test on restored</tspan></text>
<path transform="matrix(1,0,0,-1,0,537.9938)" stroke-width="1.5" stroke-linecap="square" stroke-linejoin="round" fill="none" stroke="#bf00bf" d="M 548.5469 190.75626 L 588.5469 190.75626 "/>
<path transform="matrix(1,0,0,-1,0,537.9938)" d="M 567.0469 187.75626 L 568.5469 189.25626 L 570.0469 187.75626 L 571.5469 189.25626 L 570.0469 190.75626 L 571.5469 192.25626 L 570.0469 193.75626 L 568.5469 192.25626 L 567.0469 193.75626 L 565.5469 192.25626 L 567.0469 190.75626 L 565.5469 189.25626 Z " fill="#bf00bf"/>
<path transform="matrix(1,0,0,-1,0,537.9938)" stroke-width="1" stroke-linecap="butt" stroke-miterlimit="10" stroke-linejoin="miter" fill="none" stroke="#bf00bf" d="M 567.0469 187.75626 L 568.5469 189.25626 L 570.0469 187.75626 L 571.5469 189.25626 L 570.0469 190.75626 L 571.5469 192.25626 L 570.0469 193.75626 L 568.5469 192.25626 L 567.0469 193.75626 L 565.5469 192.25626 L 567.0469 190.75626 L 565.5469 189.25626 Z "/>
<text xml:space="preserve" transform="matrix(1 0 -0 1 0 537.9938)" font-size="20" font-family="DejaVuSans"><tspan y="-197.03438" x="604.5469 616.0469 631.5469 638.76687 653.72689 659.6269 673.5869 680.3269 686.6869 698.9269 707.14688 719.40689 730.40689 735.96688">FG-NIC: oracle</tspan></text>
<text xml:space="preserve" transform="matrix(1 0 -0 1 0 537.9938)" font-size="20" font-family="DejaVuSans"><tspan y="-174.63437" x="604.5469 610.90689 618.70687 629.12686 634.6868 647.3668 660.06686 665.62686 677.9268"> (single)</tspan></text>
<path transform="matrix(1,0,0,-1,0,537.9938)" stroke-width="1.5" stroke-linecap="butt" stroke-dasharray="5.55,2.4" stroke-linejoin="round" fill="none" stroke="#bf00bf" d="M 548.5469 138.99687 L 588.5469 138.99687 "/>
<text xml:space="preserve" transform="matrix(1 0 -0 1 0 537.9938)" font-size="20" font-family="DejaVuSans"><tspan y="-145.275" x="604.5469 616.0469 631.5469 638.76687 653.72689 659.6269 673.5869 680.3269 686.6869 698.9269 707.14688 719.40689 730.40689 735.96688">FG-NIC: oracle</tspan></text>
<text xml:space="preserve" transform="matrix(1 0 -0 1 0 537.9938)" font-size="20" font-family="DejaVuSans"><tspan y="-122.875" x="604.5469 610.90689 618.70687 631.00686 643.6868 654.1068 666.4068 685.8868 698.5868 704.1468 716.4468"> (ensemble)</tspan></text>
<path transform="matrix(1,0,0,-1,0,537.9938)" stroke-width="1.5" stroke-linecap="square" stroke-linejoin="round" fill="none" stroke="#ff0000" d="M 548.5469 87.2375 L 588.5469 87.2375 "/>
<path transform="matrix(1,0,0,-1,0,537.9938)" d="M 565.5469 84.2375 L 571.5469 84.2375 L 571.5469 90.2375 L 565.5469 90.2375 Z " fill="#ff0000"/>
<path transform="matrix(1,0,0,-1,0,537.9938)" stroke-width="1" stroke-linecap="butt" stroke-miterlimit="10" stroke-linejoin="miter" fill="none" stroke="#ff0000" d="M 565.5469 84.2375 L 571.5469 84.2375 L 571.5469 90.2375 L 565.5469 90.2375 Z "/>
<text xml:space="preserve" transform="matrix(1 0 -0 1 0 537.9938)" font-size="20" font-family="DejaVuSans"><tspan y="-93.515628" x="604.5469 616.0469 631.5469 638.76687 653.72689 659.6269 673.5869 680.3269 686.6869 698.9869 711.6669 724.3669 731.58688 739.4269 751.6669 758.88687 771.1868 783.8668">FG-NIC: end-to-end</tspan></text>
<text xml:space="preserve" transform="matrix(1 0 -0 1 0 537.9938)" font-size="20" font-family="DejaVuSans"><tspan y="-71.11562" x="604.5469 610.90689 618.70687 629.12686 634.6868 647.3668 660.06686 665.62686 677.9268"> (single)</tspan></text>
<path transform="matrix(1,0,0,-1,0,537.9938)" stroke-width="1.5" stroke-linecap="butt" stroke-dasharray="5.55,2.4" stroke-linejoin="round" fill="none" stroke="#ff0000" d="M 548.5469 35.478128 L 588.5469 35.478128 "/>
<text xml:space="preserve" transform="matrix(1 0 -0 1 0 537.9938)" font-size="20" font-family="DejaVuSans"><tspan y="-41.75625" x="604.5469 616.0469 631.5469 638.76687 653.72689 659.6269 673.5869 680.3269 686.6869 698.9869 711.6669 724.3669 731.58688 739.4269 751.6669 758.88687 771.1868 783.8668">FG-NIC: end-to-end</tspan></text>
<text xml:space="preserve" transform="matrix(1 0 -0 1 0 537.9938)" font-size="20" font-family="DejaVuSans"><tspan y="-19.35625" x="604.5469 610.90689 618.70687 631.00686 643.6868 654.1068 666.4068 685.8868 698.5868 704.1468 716.4468"> (ensemble)</tspan></text>
</g>
</g>
</svg>
